<svg id="Capa_1" enable-background="new 0 0 512 512" height="512" viewBox="0 0 512 512" width="512" xmlns="http://www.w3.org/2000/svg"><g><path d="m80.637 388.936-24.52-24.52c-30.742 64.099-53.631 123.095-55.216 127.48-1.989 5.469-.623 11.602 3.49 15.714 4.113 4.111 10.245 5.479 15.714 3.49 5.026-1.818 81.084-30.933 155.844-69.279l-31.672-31.672c-5.863-5.863-5.863-15.35 0-21.213s15.352-5.863 21.213 0l38.168 38.168c28.156-15.601 54.948-32.598 77.071-50.209l-51.599-51.599c-5.863-5.863-5.863-15.35 0-21.213s15.352-5.863 21.213 0l53.033 53.033c71.367-71.367 81.777-130.356 31.82-180.313-38.694-38.694-82.897-40.721-133.986-6.705l49.133 49.133c5.863 5.863 5.863 15.35 0 21.213-5.861 5.863-15.35 5.863-21.213 0l-52.066-52.066c-7.282 6.189-14.625 12.691-22.18 20.246-12.867 12.867-25.516 29.152-37.755 47.098l69.575 69.575c5.861 5.863 5.861 15.352 0 21.213-5.863 5.863-15.352 5.863-21.215 0l-65.012-65.012c-10.668 17.562-20.804 36.042-30.3 54.553l31.674 31.674c5.861 5.861 5.861 15.35 0 21.213-5.863 5.861-15.351 5.861-21.214-.002z"/><path d="m356.404 155.596c13.672 13.665 23.621 28.158 30.255 43.31 14.714-1.547 29.548-2.206 44.617-.703 17.91 1.793 35.477-4.464 48.186-17.173 15.341-15.339 20.923-37.661 15.298-58.18 24.456-29.427 22.892-73.336-4.691-100.919-27.585-27.583-71.492-29.147-100.919-4.693-20.519-5.623-42.841-.04-58.182 15.3-12.698 12.698-18.964 30.255-17.173 48.164 1.501 15.048.828 29.965-.731 44.749 15.237 6.592 29.745 16.542 43.34 30.145z"/></g></svg>