<?xml version="1.0" standalone="no"?>
<!DOCTYPE svg PUBLIC "-//W3C//DTD SVG 20010904//EN"
 "http://www.w3.org/TR/2001/REC-SVG-20010904/DTD/svg10.dtd">
<svg version="1.0" xmlns="http://www.w3.org/2000/svg"
 width="500.000000pt" height="500.000000pt" viewBox="0 0 500.000000 500.000000"
 preserveAspectRatio="xMidYMid meet">

<g transform="translate(0.000000,500.000000) scale(0.100000,-0.100000)"
fill="#000000" stroke="none">
<path d="M3176 4154 c-217 -47 -526 -228 -766 -448 -101 -93 -98 -85 -49 -169
23 -39 57 -99 76 -132 19 -33 36 -62 39 -64 2 -2 18 7 36 21 51 38 175 104
253 133 119 45 212 25 253 -55 22 -41 23 -54 18 -145 -10 -189 -82 -476 -227
-910 -50 -148 -97 -281 -104 -295 -13 -24 -14 -24 -21 -5 -3 11 -19 52 -34 90
-38 99 -99 296 -165 535 -238 862 -439 1290 -651 1387 -60 27 -153 33 -183 12
-11 -8 -112 -93 -227 -189 -114 -96 -282 -238 -373 -314 -91 -76 -168 -143
-169 -147 -3 -7 119 -249 133 -267 1 -1 33 16 71 38 57 34 76 40 107 36 88
-10 157 -90 252 -290 65 -135 136 -341 261 -756 180 -599 249 -792 340 -953
97 -172 201 -257 311 -257 l48 0 395 319 395 320 97 205 c267 567 454 1086
534 1480 35 170 43 389 19 488 -45 186 -156 299 -333 337 -73 15 -252 12 -336
-5z m346 -123 c92 -35 149 -80 180 -142 133 -260 -43 -947 -490 -1924 -117
-256 -71 -205 -479 -535 -200 -162 -371 -296 -378 -298 -26 -6 -92 37 -133 86
-111 132 -187 328 -396 1017 -167 551 -225 713 -318 885 -36 67 -117 174 -158
208 -63 52 -164 73 -241 49 l-45 -14 -21 32 -21 31 348 290 c374 310 359 301
430 264 104 -54 208 -222 315 -510 60 -162 262 -804 357 -1140 41 -144 153
-405 221 -514 l24 -39 16 44 c8 24 38 103 65 174 149 390 288 864 338 1145 9
52 17 142 17 200 1 120 -14 162 -78 218 -119 105 -251 106 -455 4 -52 -26 -97
-48 -100 -50 -3 -1 -16 17 -29 41 -28 52 -34 43 97 150 211 172 414 281 627
338 93 25 226 20 307 -10z"/>
</g>
</svg>
